<svg width="148" height="66" viewBox="0 0 148 66" fill="none" xmlns="http://www.w3.org/2000/svg">
<g clip-path="url(#clip0_603_609)">
<path d="M0.845489 14.8704C2.58216 14.8704 4.27686 14.9487 6.01353 14.9487C7.87087 14.9487 9.68624 14.8704 11.5436 14.8704L11.4229 15.3509L8.43227 16.9178V27.6097C8.43227 34.3215 8.55295 38.8656 8.63165 39.4297L12.147 40.9967L12.0263 41.4772C10.127 41.4772 8.11222 41.3989 5.92958 41.3989C3.90958 41.3989 1.88959 41.4772 0.0742188 41.4772L0.236868 40.9967L3.38491 39.4297C3.54756 38.829 3.62626 34.3267 3.62626 27.6097V16.9178L0.677594 15.3509L0.840243 14.8704H0.845489Z" fill="#08304D"/>
<path d="M16.5177 26.4082L14.6184 25.3636L14.781 24.9196C15.4263 24.4391 20.0697 23.2691 21.1191 23.3109L20.8777 26.3665L20.9564 26.4448C23.2597 24.554 25.3584 23.3109 27.0531 23.3109C31.3345 23.3109 32.5832 26.4866 32.5832 29.5421V38.9909C32.5832 39.3513 32.8245 39.6333 33.2285 39.8736L35.2905 41.0018L35.1279 41.4823C33.6325 41.4823 31.7752 41.404 30.0805 41.404C28.7478 41.404 27.3732 41.4823 26.0405 41.4823L26.1192 41.0018L27.6932 39.6333C27.8559 38.1865 27.9765 35.1309 27.9765 29.5839C27.9765 27.291 26.6439 25.9277 24.7078 25.9277C23.4539 25.9277 22.1632 26.6119 21.1138 27.4947C21.1138 30.8688 21.1138 38.9125 21.2765 39.6333L23.2545 41.0018L23.0918 41.4823C21.7172 41.404 20.2271 41.404 18.7738 41.404C17.1578 41.404 15.4631 41.4823 13.9258 41.4823L14.0884 41.0018L16.3498 39.6333C16.4704 39.0692 16.5124 35.0892 16.5124 30.0645V26.4082H16.5177Z" fill="#08304D"/>
<path d="M49.3051 23.8386L48.7385 24.925L43.4078 25.5257C43.4078 27.7769 43.3658 32.2792 43.3658 37.2621C43.3658 38.1083 43.6491 38.5888 43.8485 38.8291C44.2945 39.1895 44.9398 39.4297 45.7846 39.4297C47.1592 39.4297 48.2505 38.9074 48.8959 38.4269L49.0585 38.5052V39.3514C48.2505 40.7982 46.2305 41.9264 43.8905 41.9264C42.0751 41.9264 40.5378 41.284 39.6931 40.2393C38.9638 39.3566 38.7644 38.4687 38.7644 35.9354V25.5257L36.2617 24.8832L36.7444 23.8386H38.8431C39.0845 22.7939 40.1758 19.9369 40.8998 18.9758C41.5452 18.5318 43.0405 18.0095 43.5652 18.0095L43.4025 23.8386H49.2999H49.3051Z" fill="#08304D"/>
<path d="M55.3597 31.9552C55.3177 32.1537 55.3177 32.3574 55.3177 32.5559C55.239 36.9799 57.7417 39.9101 61.2937 39.9101C61.7397 39.9101 62.1017 39.8683 62.427 39.79C63.639 38.8237 65.213 37.7373 66.0997 37.3351L66.2204 37.6589C65.9791 38.9438 64.2424 40.6727 63.5551 41.0749C62.7471 41.3987 60.8897 41.9211 59.3944 41.9211C54.0217 41.9211 50.4277 38.4633 50.4277 32.8745C50.4277 27.2857 54.7878 23.3057 59.5151 23.3057C63.4344 23.3057 66.7031 25.7553 66.7031 30.2211C66.7031 30.7017 66.5824 31.1456 66.2991 31.3493C65.9371 31.5113 64.3998 31.95 62.1804 31.95H55.3544L55.3597 31.9552ZM61.8604 30.7487C62.023 30.4666 62.1437 29.9861 62.1437 29.3437C62.1437 26.6119 61.215 24.3607 59.237 24.3607C56.6136 24.3607 55.3597 28.5027 55.3597 30.7539H61.8604V30.7487Z" fill="#08304D"/>
<path d="M69.5358 15.1942C73.0092 14.8703 76.1572 14.5935 78.7019 14.5935C82.4585 14.5935 84.7986 15.0375 86.6979 16.1605C89.4419 17.7274 90.2919 20.2606 90.2919 22.5902C90.2919 28.8998 84.6359 30.8323 81.1259 30.8323C80.3598 30.8323 79.6305 30.7122 79.2265 30.5921L79.1059 30.028C82.9832 29.3855 85.1239 26.612 85.1239 22.7521C85.1239 17.8058 82.0545 15.8001 77.2485 15.7583V27.1343C77.2485 36.9435 77.4899 38.7141 77.4899 39.3566L81.8499 41.0071L81.7292 41.4876C79.5886 41.4876 77.1646 41.4093 74.8245 41.4093C72.9672 41.4093 70.9472 41.4876 69.0898 41.4876L69.2525 41.0071L72.2799 39.3983C72.4425 38.6358 72.4425 36.4629 72.4425 27.1761V16.7663L69.3732 15.6799L69.5358 15.1994V15.1942Z" fill="#08304D"/>
<path d="M93.1141 24.763C93.7174 24.481 97.6787 23.358 99.0901 23.2744C99.2895 23.9586 99.5361 25.9696 99.4941 26.9724H99.5728C100.827 24.7212 103.004 23.2744 104.862 23.2744C105.832 23.2744 106.478 23.5982 106.84 23.9586C106.719 25.1234 105.79 27.4947 105.061 28.9416L104.699 29.0617C104.253 28.461 103.812 27.6932 103.004 26.1263C102.883 26.0479 102.721 25.9643 102.479 25.9643C101.472 25.9643 100.26 27.0508 99.5728 28.5394V39.5968L103.529 41.0019L103.408 41.4824C101.472 41.4824 99.2475 41.3623 96.9862 41.3623C95.4908 41.3623 93.8381 41.4824 92.3848 41.4824L92.5054 41.0019L94.6881 39.5968C94.9714 33.9662 94.9714 28.3827 94.9714 26.4083L92.9514 25.2018L93.1141 24.7578V24.763Z" fill="#08304D"/>
<path d="M126.872 32.3993C126.872 38.15 122.832 41.9263 117.423 41.9263C112.454 41.9263 108.016 38.5104 108.016 32.8014C108.016 27.0925 112.701 23.3162 117.465 23.3162C122.958 23.3162 126.872 27.1761 126.872 32.3993ZM113.105 32.159C113.105 35.8152 114.558 40.8817 117.79 40.8817C121.022 40.8817 121.788 35.7369 121.788 32.8432C121.788 29.5474 120.66 24.319 117.47 24.319C114.28 24.319 113.11 29.1452 113.11 32.159H113.105Z" fill="#08304D"/>
<path d="M139.312 24.2773C140.078 23.755 140.97 23.311 141.652 23.1125L141.935 23.2745C141.652 25.4473 141.206 27.6149 140.844 28.3775L140.482 28.5394C139.999 27.7768 139.391 26.4502 139.029 25.322C138.745 25.16 138.021 24.6377 136.604 24.6377C134.705 24.6377 133.656 25.9226 133.656 27.2127C133.656 28.0589 134.139 28.7797 135.272 29.302C137.25 30.3049 138.583 30.9891 139.915 31.6315C142.255 32.8381 142.906 34.3633 142.906 36.0556C142.906 40.7199 138.221 41.9264 135.518 41.9264C133.456 41.9264 131.158 41.2004 129.621 40.2393C129.7 38.991 130.429 36.1391 130.712 35.5385L131.038 35.3766C131.604 36.3011 132.853 39.3984 133.341 40.5632C133.866 40.7616 134.632 40.887 135.482 40.887C137.381 40.887 138.997 39.5603 138.997 37.9098C138.997 37.0271 138.635 36.3428 137.465 35.7004C136.374 35.1363 135.204 34.5356 133.75 33.8096C131.489 32.7232 130.078 31.198 130.078 28.8267C130.078 26.0532 132.176 23.3215 136.295 23.3215C137.224 23.3215 138.357 23.6035 139.322 24.2878L139.312 24.2773Z" fill="#08304D"/>
<path d="M11.1651 46.084V48.1733H2.57615V54.8015H9.54382V56.8907H2.57615V65.7492H0V46.0892H11.1651V46.084Z" fill="#08304D"/>
<path d="M28.7832 58.9748H16.3747C16.4692 60.5 16.9938 61.6856 17.9487 62.5422C18.9036 63.3988 20.0579 63.8271 21.4221 63.8271C22.5344 63.8271 23.4683 63.5712 24.2133 63.0489C24.9584 62.5318 25.483 61.8423 25.7874 60.9753H28.5629C28.1484 62.4586 27.3142 63.6704 26.0707 64.6001C24.822 65.5299 23.2742 65.9947 21.4221 65.9947C19.9477 65.9947 18.6308 65.6657 17.4713 65.0075C16.3117 64.3494 15.3988 63.4145 14.7377 62.2027C14.0766 60.9909 13.7461 59.5859 13.7461 57.9876C13.7461 56.3893 14.0661 54.9895 14.7115 53.783C15.3516 52.5816 16.254 51.6519 17.4188 51.0042C18.5783 50.3566 19.9163 50.0327 21.4273 50.0327C22.9384 50.0327 24.2028 50.3513 25.3361 50.9938C26.4694 51.631 27.3404 52.5137 27.9595 53.6315C28.5734 54.7492 28.8777 56.0132 28.8777 57.4235C28.8777 57.9145 28.8515 58.4316 28.7937 58.9748H28.7832ZM25.5513 54.3627C25.1158 53.6576 24.5281 53.1196 23.7779 52.754C23.0328 52.3884 22.2038 52.2056 21.3014 52.2056C20.0002 52.2056 18.8879 52.6182 17.9697 53.4487C17.0515 54.2739 16.5269 55.423 16.3957 56.8907H26.1966C26.1966 55.914 25.9815 55.0731 25.546 54.3679L25.5513 54.3627Z" fill="#08304D"/>
<path d="M32.6978 53.7987C33.3379 52.6026 34.2246 51.6781 35.3474 51.02C36.4702 50.3619 37.7294 50.0328 39.1303 50.0328C40.3371 50.0328 41.4651 50.3096 42.504 50.8633C43.5428 51.4169 44.3351 52.1482 44.886 53.0518V44.8723H47.4936V65.7441H44.886V62.84C44.3771 63.7593 43.6215 64.5167 42.6194 65.1121C41.6173 65.7075 40.4473 66 39.1041 66C37.7609 66 36.4755 65.6605 35.3474 64.9867C34.2246 64.3077 33.3379 63.3623 32.6978 62.1401C32.0577 60.9179 31.7324 59.5285 31.7324 57.9668C31.7324 56.4051 32.0525 55 32.6978 53.8092V53.7987ZM44.1724 54.9426C43.7002 54.0755 43.0601 53.4174 42.2574 52.9526C41.4546 52.4929 40.5732 52.2631 39.6078 52.2631C38.6424 52.2631 37.7662 52.4877 36.9739 52.9421C36.1817 53.3913 35.5468 54.0494 35.0746 54.9165C34.6024 55.7835 34.3663 56.7968 34.3663 57.9616C34.3663 59.1264 34.6024 60.1762 35.0746 61.0485C35.5468 61.9207 36.1817 62.5893 36.9739 63.049C37.7662 63.5086 38.6476 63.7384 39.6078 63.7384C40.5679 63.7384 41.4546 63.5086 42.2574 63.049C43.0601 62.5893 43.7002 61.9207 44.1724 61.0485C44.6446 60.1762 44.8807 59.1525 44.8807 57.9877C44.8807 56.8229 44.6446 55.8044 44.1724 54.9426Z" fill="#08304D"/>
<path d="M66.3555 58.9748H53.947C54.0414 60.5 54.5661 61.6856 55.521 62.5422C56.4759 63.3988 57.6302 63.8271 58.9943 63.8271C60.1066 63.8271 61.0406 63.5712 61.7856 63.0489C62.5306 62.5318 63.0553 61.8423 63.3596 60.9753H66.1352C65.7207 62.4586 64.8864 63.6704 63.643 64.6001C62.3942 65.5299 60.8464 65.9947 58.9943 65.9947C57.52 65.9947 56.2031 65.6657 55.0435 65.0075C53.884 64.3494 52.9711 63.4145 52.31 62.2027C51.6489 60.9909 51.3184 59.5859 51.3184 57.9876C51.3184 56.3893 51.6384 54.9895 52.2838 53.783C52.9239 52.5816 53.8263 51.6519 54.9911 51.0042C56.1506 50.3566 57.4885 50.0327 58.9996 50.0327C60.5106 50.0327 61.7751 50.3513 62.9084 50.9938C64.0417 51.631 64.9127 52.5137 65.5318 53.6315C66.1456 54.7492 66.45 56.0132 66.45 57.4235C66.45 57.9145 66.4237 58.4316 66.366 58.9748H66.3555ZM63.1235 54.3627C62.688 53.6576 62.1004 53.1196 61.3501 52.754C60.6051 52.3884 59.7761 52.2056 58.8737 52.2056C57.5725 52.2056 56.4602 52.6182 55.542 53.4487C54.6238 54.2739 54.0991 55.423 53.968 56.8907H63.7689C63.7689 55.914 63.5538 55.0731 63.1183 54.3679L63.1235 54.3627Z" fill="#08304D"/>
<path d="M74.7811 50.7378C75.6206 50.2469 76.6437 50.0066 77.8557 50.0066V52.66H77.1736C74.2827 52.66 72.8398 54.2217 72.8398 57.3399V65.744H70.2637V50.2886H72.8398V52.801C73.291 51.9183 73.9416 51.234 74.7811 50.7431V50.7378Z" fill="#08304D"/>
<path d="M81.257 53.7986C81.8971 52.6025 82.7838 51.678 83.9066 51.0199C85.0294 50.3618 86.2834 50.0327 87.6633 50.0327C89.0432 50.0327 90.2027 50.3252 91.2048 50.905C92.207 51.49 92.952 52.2212 93.4452 53.1039V50.2834H96.0528V65.7388H93.4452V62.8608C92.9363 63.7644 92.1755 64.5113 91.1629 65.1016C90.1503 65.6918 88.975 65.9895 87.6371 65.9895C86.2991 65.9895 85.0137 65.65 83.8961 64.9762C82.7786 64.3024 81.9024 63.3518 81.2623 62.1296C80.6222 60.9074 80.2969 59.518 80.2969 57.9563C80.2969 56.3945 80.6169 54.9895 81.2623 53.7986H81.257ZM92.7317 54.9425C92.2594 54.0755 91.6193 53.4173 90.8166 52.9525C90.0138 52.4928 89.1324 52.263 88.167 52.263C87.2016 52.263 86.3254 52.4876 85.5331 52.942C84.7409 53.3912 84.106 54.0493 83.6338 54.9164C83.1616 55.7834 82.9255 56.7967 82.9255 57.9615C82.9255 59.1263 83.1616 60.1761 83.6338 61.0484C84.106 61.9207 84.7409 62.5892 85.5331 63.0489C86.3254 63.5085 87.2068 63.7383 88.167 63.7383C89.1271 63.7383 90.0138 63.5085 90.8166 63.0489C91.6193 62.5892 92.2594 61.9207 92.7317 61.0484C93.2039 60.1761 93.44 59.1524 93.44 57.9876C93.44 56.8228 93.2039 55.8043 92.7317 54.9425Z" fill="#08304D"/>
<path d="M103.414 44.8723V65.7441H100.838V44.8723H103.414Z" fill="#08304D"/>
<path d="M134.877 14.5205C134.877 14.5205 136.226 12.1544 136.955 10.8538C137.679 9.54801 138.928 9.39131 138.928 9.39131C138.928 9.39131 141.745 9.15627 141.819 9.12493C141.892 9.09359 142.254 8.76976 142.254 8.76976L141.693 8.24744C141.625 8.17432 142.06 8.03851 142.06 8.03851C142.06 8.03851 145.444 7.33861 146.258 7.2237C146.961 7.12446 147.748 6.64393 147.952 6.51857C147.984 6.51857 148.005 6.51857 148.005 6.51857L147.979 6.50812L148 6.49245C148 6.49245 147.984 6.49245 147.947 6.49245C147.732 6.38799 146.898 6.00148 146.184 5.98058C145.36 5.95447 141.919 5.6463 141.919 5.6463C141.919 5.6463 141.467 5.55751 141.53 5.47916L142.029 4.89416C142.029 4.89416 141.63 4.61211 141.557 4.59122C141.478 4.57033 138.655 4.6539 138.655 4.6539C138.655 4.6539 137.396 4.63823 136.53 3.42123C135.659 2.20423 134.048 0.010498 134.048 0.010498L131.95 0.130631L131.005 4.90983L130.061 4.59644L128.707 2.63775L127.427 2.69521L126.719 6.2992L129.594 6.59169V6.69093L129.132 6.92075L129.169 7.55798V7.57887L129.206 8.2161L129.683 8.39369L129.704 8.49293L126.881 9.10926L127.994 12.6088L129.269 12.5252L130.391 10.4255L131.294 10.0076L132.779 14.651L134.877 14.5309V14.5205Z" fill="url(#paint0_linear_603_609)"/>
<path d="M125.198 8.75938L68.4121 7.60506L68.6377 7.65206L125.114 6.63354L125.198 8.75938Z" fill="url(#paint1_linear_603_609)"/>
<path d="M125.197 4.8419L108.271 3.68757L108.34 3.72936L125.171 2.71606L125.197 4.8419Z" fill="url(#paint2_linear_603_609)"/>
<path d="M125.004 12.6818L108.078 11.5223L108.146 11.5693L124.978 10.5508L125.004 12.6818Z" fill="url(#paint3_linear_603_609)"/>
</g>
<defs>
<linearGradient id="paint0_linear_603_609" x1="126.742" y1="6.11072" x2="147.414" y2="9.78341" gradientUnits="userSpaceOnUse">
<stop stop-color="#C1A782"/>
<stop offset="0.97" stop-color="#F3E1CD"/>
</linearGradient>
<linearGradient id="paint1_linear_603_609" x1="68.4121" y1="7.69907" x2="125.198" y2="7.69907" gradientUnits="userSpaceOnUse">
<stop stop-color="white"/>
<stop offset="1" stop-color="#C1A782"/>
</linearGradient>
<linearGradient id="paint2_linear_603_609" x1="108.271" y1="3.77637" x2="125.197" y2="3.77637" gradientUnits="userSpaceOnUse">
<stop stop-color="white"/>
<stop offset="1" stop-color="#C1A782"/>
</linearGradient>
<linearGradient id="paint3_linear_603_609" x1="108.078" y1="11.6163" x2="125.004" y2="11.6163" gradientUnits="userSpaceOnUse">
<stop stop-color="white"/>
<stop offset="1" stop-color="#C1A782"/>
</linearGradient>
<clipPath id="clip0_603_609">
<rect width="148" height="66" fill="white"/>
</clipPath>
</defs>
</svg>
